<svg version="1.1" xmlns="http://www.w3.org/2000/svg" xmlns:xlink="http://www.w3.org/1999/xlink" width="946" height="2326"><desc>participant%20Resource%0Aparticipant%20Result%0Aparticipant%20RowResult%0Aparticipant%20InstanceLoader%0Aparticipant%20Field%0A%0AResource-%3EResource%3A%22%22import_data()%22%22%0Aactivate%20Resource%0AResource-%3EResult%3A%22%22__init__()%22%22%0Aactivate%20Result%0AResource%3C--Result%3A%22%22Result%22%22%0Adeactivate%20Result%0A%0AResource-%3EResource%3A%3Cbackground%3A%23yellow%3E%22%22before_import()%22%22%0A%0Aloop%20%23pink%20each%20row%20in%20dataset%0AResource-%3EResource%3A%22%22import_row()%22%22%0Aactivate%20Resource%20%23lightblue%0AResource-%3ERowResult%3A%22%22__init__()%22%22%0Aactivate%20RowResult%0AResource%3C--RowResult%3A%22%22RowResult%22%22%0Adeactivate%20RowResult%0A%0AResource-%3EResource%3A%3Cbackground%3A%23yellow%3E%22%22before_import_row()%22%22%0A%0A%0AResource-%3EResource%3A%3Cbackground%3A%23yellow%3E%22%22get_or_init_instance()%22%22%0Aactivate%20Resource%20%23lightgrey%0A%0AResource-%3EResource%3A%3Cbackground%3A%23yellow%3E%22%22get_instance()%22%22%0Aactivate%20Resource%20%23lightgreen%0AResource-%3EInstanceLoader%3A%22%22get_instance()%22%22%0Aactivate%20InstanceLoader%0Anote%20over%20InstanceLoader%3A%20Existing%20Instance%20is%20returned%20if%20exists%2C%5Cn%20otherwise%20a%20new%20Instance%20is%20created.%0A%0AResource%3C--InstanceLoader%3A%22%22Instance%22%22%0AResource--%3EResource%3A%22%22Instance%22%22%0Adeactivate%20Resource%0Adeactivate%20InstanceLoader%0AResource--%3EResource%3A%22%22Instance%2C%20bool%22%22%0Adeactivate%20Resource%0A%0A%0A%0AResource-%3EResource%3A%3Cbackground%3A%23yellow%3E%22%22after_init_instance()%22%22%0A%0A%0AResource-%3EResource%3A%3Cbackground%3A%23yellow%3E%22%22for_delete()%22%22%0Aactivate%20Resource%20%23lightgrey%0Anote%20over%20Resource%3A%20If%20True%2C%20row%20is%20deleted.%0AResource--%3EResource%3A%22%22bool%22%22%0A%0Adeactivate%20Resource%0A%0A%0AResource-%3EResource%3A%22%22import_instance()%22%22%0Aactivate%20Resource%20%23lightgrey%0A%0Aloop%20%23green%20each%20field%20in%20row%0AResource-%3EField%3Asave()%0Aend%0Aspace%0Adeactivate%20Resource%0A%0AResource-%3EResource%3A%3Cbackground%3A%23yellow%3E%22%22skip_row()%22%22%0Aactivate%20Resource%20%23lightgrey%0Anote%20over%20Resource%3A%20If%20True%2C%20row%20is%20skipped.%0AResource--%3EResource%3A%22%22bool%22%22%0Adeactivate%20Resource%0A%0AResource-%3EResource%3A%3Cbackground%3A%23yellow%3E%22%22validate_instance()%22%22%0AResource-%3EResource%3A%3Cbackground%3A%23yellow%3E%22%22save_instance()%22%22%0AResource-%3EResource%3A%3Cbackground%3A%23yellow%3E%22%22save_m2m()%22%22%0A%0AResource-%3EResource%3A%3Cbackground%3A%23yellow%3E%22%22after_import_row()%22%22%0A%0A%0AResource--%3EResource%3A%22%22RowResult%22%22%0Adeactivate%20Resource%0Aend%0A%0AResource%3C--Resource%3A%22%22Result%22%22%0Adeactivate%20Resource%0A</desc><defs/><g><g/><g/><g/><g/><g/><g/><g/><g/><g/><g/><g/><g/><g/><g/><g/><g/><g/><g/><g/><g/><g/><g/><g/><g/><g/><g/><g/><g/><g/><g/><g/><g><rect fill="white" stroke="none" x="0" y="0" width="946" height="2326"/></g><g><rect fill="rgb(255,242,245)" stroke="none" x="-8.795878700000003" y="337.233989358" width="937.4311345356887" height="1855.9304057000002"/><rect fill="rgb(204,230,204)" stroke="none" x="71.70536283421876" y="1454.3105842579998" width="839.33813560147" height="96.75466570000003"/></g><g><path fill="none" stroke="black" paint-order="fill stroke markers" d=" M 133.27651373421875 59.284222437999986 L 133.27651373421875 2326.861751298" stroke-miterlimit="10" stroke-width="1.4659797833333332" stroke-dasharray="13.532121076923076,5.863919133333333"/><path fill="none" stroke="black" paint-order="fill stroke markers" d=" M 403.05079742848955 59.284222437999986 L 403.05079742848955 2326.861751298" stroke-miterlimit="10" stroke-width="1.4659797833333332" stroke-dasharray="13.532121076923076,5.863919133333333"/><path fill="none" stroke="black" paint-order="fill stroke markers" d=" M 515.0335491848293 59.284222437999986 L 515.0335491848293 2326.861751298" stroke-miterlimit="10" stroke-width="1.4659797833333332" stroke-dasharray="13.532121076923076,5.863919133333333"/><path fill="none" stroke="black" paint-order="fill stroke markers" d=" M 686.650887710259 59.284222437999986 L 686.650887710259 2326.861751298" stroke-miterlimit="10" stroke-width="1.4659797833333332" stroke-dasharray="13.532121076923076,5.863919133333333"/><path fill="none" stroke="black" paint-order="fill stroke markers" d=" M 849.4723475356886 59.284222437999986 L 849.4723475356886 2326.861751298" stroke-miterlimit="10" stroke-width="1.4659797833333332" stroke-dasharray="13.532121076923076,5.863919133333333"/></g><g><path fill="none" stroke="none"/><g><path fill="white" stroke="black" paint-order="fill stroke markers" d=" M 82.81867601039454 11.786477457999997 L 183.73435145804297 11.786477457999997 L 183.73435145804297 59.284222437999986 L 82.81867601039454 59.284222437999986 L 82.81867601039454 11.786477457999997 Z" stroke-miterlimit="10" stroke-width="2.814681184" stroke-dasharray=""/></g><g><g/><text fill="black" stroke="none" font-family="sans-serif" font-size="11pt" font-style="normal" font-weight="normal" text-decoration="normal" x="101.90573278939453" y="41.692465037999995" text-anchor="start" dominant-baseline="alphabetic" xml:space="preserve">Resource</text></g><path fill="none" stroke="none"/><g><path fill="white" stroke="black" paint-order="fill stroke markers" d=" M 363.18708354499734 11.786477457999997 L 442.9145113119817 11.786477457999997 L 442.9145113119817 59.284222437999986 L 363.18708354499734 59.284222437999986 L 363.18708354499734 11.786477457999997 Z" stroke-miterlimit="10" stroke-width="2.814681184" stroke-dasharray=""/></g><g><g/><text fill="black" stroke="none" font-family="sans-serif" font-size="11pt" font-style="normal" font-weight="normal" text-decoration="normal" x="382.27414032399736" y="41.692465037999995" text-anchor="start" dominant-baseline="alphabetic" xml:space="preserve">Result</text></g><path fill="none" stroke="none"/><g><path fill="white" stroke="black" paint-order="fill stroke markers" d=" M 460.50626871198165 11.786477457999997 L 569.560829657677 11.786477457999997 L 569.560829657677 59.284222437999986 L 460.50626871198165 59.284222437999986 L 460.50626871198165 11.786477457999997 Z" stroke-miterlimit="10" stroke-width="2.814681184" stroke-dasharray=""/></g><g><g/><text fill="black" stroke="none" font-family="sans-serif" font-size="11pt" font-style="normal" font-weight="normal" text-decoration="normal" x="479.59332549098167" y="41.692465037999995" text-anchor="start" dominant-baseline="alphabetic" xml:space="preserve">RowResult</text></g><path fill="none" stroke="none"/><g><path fill="white" stroke="black" paint-order="fill stroke markers" d=" M 617.0305667711027 11.786477457999997 L 756.2712086494153 11.786477457999997 L 756.2712086494153 59.284222437999986 L 617.0305667711027 59.284222437999986 L 617.0305667711027 11.786477457999997 Z" stroke-miterlimit="10" stroke-width="2.814681184" stroke-dasharray=""/></g><g><g/><text fill="black" stroke="none" font-family="sans-serif" font-size="11pt" font-style="normal" font-weight="normal" text-decoration="normal" x="636.1176235501027" y="41.692465037999995" text-anchor="start" dominant-baseline="alphabetic" xml:space="preserve">InstanceLoader</text></g><path fill="none" stroke="none"/><g><path fill="white" stroke="black" paint-order="fill stroke markers" d=" M 814.4976793675285 11.786477457999997 L 884.4470157038488 11.786477457999997 L 884.4470157038488 59.284222437999986 L 814.4976793675285 59.284222437999986 L 814.4976793675285 11.786477457999997 Z" stroke-miterlimit="10" stroke-width="2.814681184" stroke-dasharray=""/></g><g><g/><text fill="black" stroke="none" font-family="sans-serif" font-size="11pt" font-style="normal" font-weight="normal" text-decoration="normal" x="833.5847361465285" y="41.692465037999995" text-anchor="start" dominant-baseline="alphabetic" xml:space="preserve">Field</text></g></g><g><path fill="white" stroke="black" paint-order="fill stroke markers" d=" M 124.48063503421875 140.206306478 L 142.07239243421876 140.206306478 L 142.07239243421876 2242.421315778 L 124.48063503421875 2242.421315778 L 124.48063503421875 140.206306478" stroke-miterlimit="10" stroke-width="1.4659797833333332" stroke-dasharray=""/><path fill="white" stroke="black" paint-order="fill stroke markers" d=" M 394.25491872848954 189.46322719799997 L 411.84667612848955 189.46322719799997 L 411.84667612848955 238.72014791799995 L 394.25491872848954 238.72014791799995 L 394.25491872848954 189.46322719799997" stroke-miterlimit="10" stroke-width="1.4659797833333332" stroke-dasharray=""/><path fill="lightblue" stroke="black" paint-order="fill stroke markers" d=" M 133.27651373421875 430.47030357799997 L 150.86827113421876 430.47030357799997 L 150.86827113421876 2143.907474338 L 133.27651373421875 2143.907474338 L 133.27651373421875 430.47030357799997" stroke-miterlimit="10" stroke-width="1.4659797833333332" stroke-dasharray=""/><path fill="white" stroke="black" paint-order="fill stroke markers" d=" M 506.2376704848293 479.72722429799995 L 523.8294278848293 479.72722429799995 L 523.8294278848293 528.9841450179999 L 506.2376704848293 528.9841450179999 L 506.2376704848293 479.72722429799995" stroke-miterlimit="10" stroke-width="1.4659797833333332" stroke-dasharray=""/><path fill="lightgrey" stroke="black" paint-order="fill stroke markers" d=" M 142.07239243421876 673.2365556979998 L 159.66414983421876 673.2365556979998 L 159.66414983421876 1049.700164058 L 142.07239243421876 1049.700164058 L 142.07239243421876 673.2365556979998" stroke-miterlimit="10" stroke-width="1.4659797833333332" stroke-dasharray=""/><path fill="lightgreen" stroke="black" paint-order="fill stroke markers" d=" M 150.86827113421876 745.3627610379998 L 168.46002853421876 745.3627610379998 L 168.46002853421876 977.5739587179997 L 150.86827113421876 977.5739587179997 L 150.86827113421876 745.3627610379998" stroke-miterlimit="10" stroke-width="1.4659797833333332" stroke-dasharray=""/><path fill="white" stroke="black" paint-order="fill stroke markers" d=" M 677.855009010259 794.6196817579998 L 695.446766410259 794.6196817579998 L 695.446766410259 977.5739587179997 L 677.855009010259 977.5739587179997 L 677.855009010259 794.6196817579998" stroke-miterlimit="10" stroke-width="1.4659797833333332" stroke-dasharray=""/><path fill="lightgrey" stroke="black" paint-order="fill stroke markers" d=" M 142.07239243421876 1216.821859358 L 159.66414983421876 1216.821859358 L 159.66414983421876 1332.927458198 L 142.07239243421876 1332.927458198 L 142.07239243421876 1216.821859358" stroke-miterlimit="10" stroke-width="1.4659797833333332" stroke-dasharray=""/><path fill="lightgrey" stroke="black" paint-order="fill stroke markers" d=" M 142.07239243421876 1427.922948158 L 159.66414983421876 1427.922948158 L 159.66414983421876 1595.0446434579999 L 142.07239243421876 1595.0446434579999 L 142.07239243421876 1427.922948158" stroke-miterlimit="10" stroke-width="1.4659797833333332" stroke-dasharray=""/><path fill="lightgrey" stroke="black" paint-order="fill stroke markers" d=" M 142.07239243421876 1667.170848798 L 159.66414983421876 1667.170848798 L 159.66414983421876 1783.276447638 L 142.07239243421876 1783.276447638 L 142.07239243421876 1667.170848798" stroke-miterlimit="10" stroke-width="1.4659797833333332" stroke-dasharray=""/><g><g><rect fill="white" stroke="none" x="162.88930535755208" y="94.46773723799998" width="119.64404333328125" height="22.86928462"/></g><text fill="black" stroke="none" font-family="monospace" font-size="11pt" font-style="normal" font-weight="normal" text-decoration="normal" x="165.5280689675521" y="110.30031889799997" text-anchor="start" dominant-baseline="alphabetic" xml:space="preserve">import_data()</text></g><g><path fill="none" stroke="black" paint-order="fill stroke markers" d=" M 133.27651373421875 117.33702185799999 L 212.43942203421875 117.33702185799999 L 212.43942203421875 140.206306478 L 156.5562726935521 140.206306478" stroke-miterlimit="10" stroke-width="1.4659797833333332" stroke-dasharray=""/><g transform="translate(142.07239243421876,140.206306478) translate(-142.07239243421876,-140.206306478)"><path fill="black" stroke="none" paint-order="stroke fill markers" d=" M 156.73219026755208 132.8764075613333 L 142.07239243421876 140.206306478 L 156.73219026755208 147.53620539466667 Z"/></g></g><g><g><rect fill="white" stroke="none" x="221.53777038932287" y="166.59394257799997" width="93.2517703840625" height="22.86928462"/></g><text fill="black" stroke="none" font-family="monospace" font-size="11pt" font-style="normal" font-weight="normal" text-decoration="normal" x="224.17653399932288" y="182.42652423799998" text-anchor="start" dominant-baseline="alphabetic" xml:space="preserve">__init__()</text></g><g><path fill="none" stroke="black" paint-order="fill stroke markers" d=" M 142.07239243421876 189.46322719799997 L 379.7710384691562 189.46322719799997" stroke-miterlimit="10" stroke-width="1.4659797833333332" stroke-dasharray=""/><g transform="translate(394.25491872848954,189.46322719799997) translate(-394.25491872848954,-189.46322719799997)"><path fill="black" stroke="none" paint-order="stroke fill markers" d=" M 379.5951208951562 182.1333282813333 L 394.25491872848954 189.46322719799997 L 379.5951208951562 196.79312611466665 Z"/></g></g><g><g><rect fill="white" stroke="none" x="239.13261902213537" y="215.85086329799995" width="58.062073118437496" height="22.86928462"/></g><text fill="black" stroke="none" font-family="monospace" font-size="11pt" font-style="normal" font-weight="normal" text-decoration="normal" x="241.77138263213538" y="231.68344495799997" text-anchor="start" dominant-baseline="alphabetic" xml:space="preserve">Result</text></g><g><path fill="none" stroke="black" paint-order="fill stroke markers" d=" M 394.25491872848954 238.72014791799995 L 156.5562726935521 238.72014791799995" stroke-miterlimit="10" stroke-width="1.4659797833333332" stroke-dasharray="7.0367029599999995"/><g transform="translate(142.07239243421876,238.72014791799995) translate(-142.07239243421876,-238.72014791799995)"><path fill="black" stroke="none" paint-order="stroke fill markers" d=" M 156.73219026755208 231.39024900133327 L 142.07239243421876 238.72014791799995 L 156.73219026755208 246.05004683466663 Z"/></g></g><g><g><rect fill="white" stroke="none" x="162.88930535755208" y="265.10778401799996" width="137.23889196609375" height="22.86928462"/></g><g><rect fill="yellow" stroke="none" x="165.5280689675521" y="267.92246520199996" width="131.96136474609375" height="17.767674974"/><text fill="black" stroke="none" font-family="monospace" font-size="11pt" font-style="normal" font-weight="normal" text-decoration="normal" x="165.5280689675521" y="280.940365678" text-anchor="start" dominant-baseline="alphabetic" xml:space="preserve">before_import()</text></g><g><path fill="none" stroke="black" paint-order="fill stroke markers" d=" M 142.07239243421876 287.977068638 L 212.43942203421875 287.977068638 L 212.43942203421875 310.84635325799997 L 156.5562726935521 310.84635325799997" stroke-miterlimit="10" stroke-width="1.4659797833333332" stroke-dasharray=""/><g transform="translate(142.07239243421876,310.84635325799997) translate(-142.07239243421876,-310.84635325799997)"><path fill="black" stroke="none" paint-order="stroke fill markers" d=" M 156.73219026755208 303.5164543413333 L 142.07239243421876 310.84635325799997 L 156.73219026755208 318.1762521746666 Z"/></g></g><g><g><rect fill="rgb(255,242,245)" stroke="none" x="171.68518405755208" y="384.73173433799997" width="110.846619016875" height="22.86928462"/></g><text fill="black" stroke="none" font-family="monospace" font-size="11pt" font-style="normal" font-weight="normal" text-decoration="normal" x="174.3239476675521" y="400.564315998" text-anchor="start" dominant-baseline="alphabetic" xml:space="preserve">import_row()</text></g><g><path fill="none" stroke="black" paint-order="fill stroke markers" d=" M 142.07239243421876 407.601018958 L 221.23530073421875 407.601018958 L 221.23530073421875 430.47030357799997 L 165.3521513935521 430.47030357799997" stroke-miterlimit="10" stroke-width="1.4659797833333332" stroke-dasharray=""/><g transform="translate(150.86827113421876,430.47030357799997) translate(-150.86827113421876,-430.47030357799997)"><path fill="black" stroke="none" paint-order="stroke fill markers" d=" M 165.5280689675521 423.1404046613333 L 150.86827113421876 430.47030357799997 L 165.5280689675521 437.8002024946666 Z"/></g></g><g><g><rect fill="rgb(255,242,245)" stroke="none" x="281.92708561749276" y="456.857939678" width="93.2517703840625" height="22.86928462"/></g><text fill="black" stroke="none" font-family="monospace" font-size="11pt" font-style="normal" font-weight="normal" text-decoration="normal" x="284.5658492274928" y="472.690521338" text-anchor="start" dominant-baseline="alphabetic" xml:space="preserve">__init__()</text></g><g><path fill="none" stroke="black" paint-order="fill stroke markers" d=" M 150.86827113421876 479.72722429799995 L 491.753790225496 479.72722429799995" stroke-miterlimit="10" stroke-width="1.4659797833333332" stroke-dasharray=""/><g transform="translate(506.2376704848293,479.72722429799995) translate(-506.2376704848293,-479.72722429799995)"><path fill="black" stroke="none" paint-order="stroke fill markers" d=" M 491.57787265149597 472.3973253813333 L 506.2376704848293 479.72722429799995 L 491.57787265149597 487.0571232146666 Z"/></g></g><g><g><rect fill="rgb(255,242,245)" stroke="none" x="286.3257977756959" y="506.11486039799996" width="84.45434606765625" height="22.86928462"/></g><text fill="black" stroke="none" font-family="monospace" font-size="11pt" font-style="normal" font-weight="normal" text-decoration="normal" x="288.9645613856959" y="521.947442058" text-anchor="start" dominant-baseline="alphabetic" xml:space="preserve">RowResult</text></g><g><path fill="none" stroke="black" paint-order="fill stroke markers" d=" M 506.2376704848293 528.9841450179999 L 165.3521513935521 528.9841450179999" stroke-miterlimit="10" stroke-width="1.4659797833333332" stroke-dasharray="7.0367029599999995"/><g transform="translate(150.86827113421876,528.9841450179999) translate(-150.86827113421876,-528.9841450179999)"><path fill="black" stroke="none" paint-order="stroke fill markers" d=" M 165.5280689675521 521.6542461013332 L 150.86827113421876 528.9841450179999 L 165.5280689675521 536.3140439346666 Z"/></g></g><g><g><rect fill="rgb(255,242,245)" stroke="none" x="171.68518405755208" y="555.371781118" width="172.42858923171875" height="22.86928462"/></g><g><rect fill="yellow" stroke="none" x="174.3239476675521" y="558.1864623019999" width="167.15106201171875" height="17.767674974"/><text fill="black" stroke="none" font-family="monospace" font-size="11pt" font-style="normal" font-weight="normal" text-decoration="normal" x="174.3239476675521" y="571.2043627779999" text-anchor="start" dominant-baseline="alphabetic" xml:space="preserve">before_import_row()</text></g><g><path fill="none" stroke="black" paint-order="fill stroke markers" d=" M 150.86827113421876 578.2410657379999 L 221.23530073421875 578.2410657379999 L 221.23530073421875 601.1103503579999 L 165.3521513935521 601.1103503579999" stroke-miterlimit="10" stroke-width="1.4659797833333332" stroke-dasharray=""/><g transform="translate(150.86827113421876,601.1103503579999) translate(-150.86827113421876,-601.1103503579999)"><path fill="black" stroke="none" paint-order="stroke fill markers" d=" M 165.5280689675521 593.7804514413332 L 150.86827113421876 601.1103503579999 L 165.5280689675521 608.4402492746666 Z"/></g></g><g><g><rect fill="rgb(255,242,245)" stroke="none" x="180.48106275755208" y="627.4979864579999" width="198.8208621809375" height="22.86928462"/></g><g><rect fill="yellow" stroke="none" x="183.1198263675521" y="630.3126676419998" width="193.5433349609375" height="17.767674974"/><text fill="black" stroke="none" font-family="monospace" font-size="11pt" font-style="normal" font-weight="normal" text-decoration="normal" x="183.1198263675521" y="643.3305681179999" text-anchor="start" dominant-baseline="alphabetic" xml:space="preserve">get_or_init_instance()</text></g><g><path fill="none" stroke="black" paint-order="fill stroke markers" d=" M 150.86827113421876 650.3672710779998 L 230.03117943421876 650.3672710779998 L 230.03117943421876 673.2365556979998 L 174.1480300935521 673.2365556979998" stroke-miterlimit="10" stroke-width="1.4659797833333332" stroke-dasharray=""/><g transform="translate(159.66414983421876,673.2365556979998) translate(-159.66414983421876,-673.2365556979998)"><path fill="black" stroke="none" paint-order="stroke fill markers" d=" M 174.3239476675521 665.9066567813331 L 159.66414983421876 673.2365556979998 L 174.3239476675521 680.5664546146666 Z"/></g></g><g><g><rect fill="rgb(255,242,245)" stroke="none" x="189.27694145755206" y="699.6241917979999" width="128.4414676496875" height="22.86928462"/></g><g><rect fill="yellow" stroke="none" x="191.91570506755207" y="702.4388729819998" width="123.1639404296875" height="17.767674974"/><text fill="black" stroke="none" font-family="monospace" font-size="11pt" font-style="normal" font-weight="normal" text-decoration="normal" x="191.91570506755207" y="715.4567734579998" text-anchor="start" dominant-baseline="alphabetic" xml:space="preserve">get_instance()</text></g><g><path fill="none" stroke="black" paint-order="fill stroke markers" d=" M 159.66414983421876 722.4934764179998 L 238.82705813421873 722.4934764179998 L 238.82705813421873 745.3627610379998 L 182.94390879355205 745.3627610379998" stroke-miterlimit="10" stroke-width="1.4659797833333332" stroke-dasharray=""/><g transform="translate(168.46002853421874,745.3627610379998) translate(-168.46002853421874,-745.3627610379998)"><path fill="black" stroke="none" paint-order="stroke fill markers" d=" M 183.11982636755206 738.0328621213331 L 168.46002853421874 745.3627610379998 L 183.11982636755206 752.6926599546665 Z"/></g></g><g><g><rect fill="rgb(255,242,245)" stroke="none" x="358.9367849473951" y="771.7503971379998" width="128.4414676496875" height="22.86928462"/></g><text fill="black" stroke="none" font-family="monospace" font-size="11pt" font-style="normal" font-weight="normal" text-decoration="normal" x="361.5755485573951" y="787.5829787979998" text-anchor="start" dominant-baseline="alphabetic" xml:space="preserve">get_instance()</text></g><g><path fill="none" stroke="black" paint-order="fill stroke markers" d=" M 168.46002853421874 794.6196817579998 L 663.3711287509257 794.6196817579998" stroke-miterlimit="10" stroke-width="1.4659797833333332" stroke-dasharray=""/><g transform="translate(677.855009010259,794.6196817579998) translate(-677.855009010259,-794.6196817579998)"><path fill="black" stroke="none" paint-order="stroke fill markers" d=" M 663.1952111769257 787.2897828413331 L 677.855009010259 794.6196817579998 L 663.1952111769257 801.9495806746665 Z"/></g></g><path fill="white" stroke="black" paint-order="fill stroke markers" d=" M 541.4211852848293 821.0073178579997 L 816.0480084756887 821.0073178579997 L 831.8805901356886 836.8398995179997 L 831.8805901356886 879.0601172779998 L 541.4211852848293 879.0601172779998 L 541.4211852848293 821.0073178579997 M 816.0480084756887 821.0073178579997 L 816.0480084756887 836.8398995179997 L 831.8805901356886 836.8398995179997" stroke-miterlimit="10" stroke-width="1.4659797833333332" stroke-dasharray=""/><g><text fill="black" stroke="none" font-family="sans-serif" font-size="11pt" font-style="normal" font-weight="normal" text-decoration="normal" x="566.0496456448293" y="845.6357782179998" text-anchor="start" dominant-baseline="alphabetic" xml:space="preserve">Existing Instance is returned if exists,</text><text fill="black" stroke="none" font-family="sans-serif" font-size="11pt" font-style="normal" font-weight="normal" text-decoration="normal" x="566.0496456448293" y="863.2275356179998" text-anchor="start" dominant-baseline="alphabetic" xml:space="preserve"> otherwise a new Instance is created.</text></g><g><g><rect fill="rgb(255,242,245)" stroke="none" x="385.32905789661385" y="905.4477533779998" width="75.65692175125" height="22.86928462"/></g><text fill="black" stroke="none" font-family="monospace" font-size="11pt" font-style="normal" font-weight="normal" text-decoration="normal" x="387.96782150661386" y="921.2803350379997" text-anchor="start" dominant-baseline="alphabetic" xml:space="preserve">Instance</text></g><g><path fill="none" stroke="black" paint-order="fill stroke markers" d=" M 677.855009010259 928.3170379979998 L 182.94390879355205 928.3170379979998" stroke-miterlimit="10" stroke-width="1.4659797833333332" stroke-dasharray="7.0367029599999995"/><g transform="translate(168.46002853421874,928.3170379979998) translate(-168.46002853421874,-928.3170379979998)"><path fill="black" stroke="none" paint-order="stroke fill markers" d=" M 183.11982636755206 920.9871390813331 L 168.46002853421874 928.3170379979998 L 183.11982636755206 935.6469369146665 Z"/></g></g><g><g><rect fill="rgb(255,242,245)" stroke="none" x="189.27694145755206" y="954.7046740979998" width="75.65692175125" height="22.86928462"/></g><text fill="black" stroke="none" font-family="monospace" font-size="11pt" font-style="normal" font-weight="normal" text-decoration="normal" x="191.91570506755207" y="970.5372557579998" text-anchor="start" dominant-baseline="alphabetic" xml:space="preserve">Instance</text></g><g><path fill="none" stroke="black" paint-order="fill stroke markers" d=" M 168.46002853421874 977.5739587179997 L 238.82705813421873 977.5739587179997 L 238.82705813421873 1000.4432433379998 L 174.14803009355205 1000.4432433379998" stroke-miterlimit="10" stroke-width="1.4659797833333332" stroke-dasharray="7.0367029599999995"/><g transform="translate(159.66414983421873,1000.4432433379998) translate(-159.66414983421873,-1000.4432433379998)"><path fill="black" stroke="none" paint-order="stroke fill markers" d=" M 174.32394766755206 993.1133444213331 L 159.66414983421873 1000.4432433379998 L 174.32394766755206 1007.7731422546665 Z"/></g></g><g><g><rect fill="rgb(255,242,245)" stroke="none" x="180.48106275755208" y="1026.8308794379998" width="128.4414676496875" height="22.86928462"/></g><text fill="black" stroke="none" font-family="monospace" font-size="11pt" font-style="normal" font-weight="normal" text-decoration="normal" x="183.1198263675521" y="1042.6634610979997" text-anchor="start" dominant-baseline="alphabetic" xml:space="preserve">Instance, bool</text></g><g><path fill="none" stroke="black" paint-order="fill stroke markers" d=" M 159.66414983421876 1049.700164058 L 230.03117943421876 1049.700164058 L 230.03117943421876 1072.5694486779998 L 165.3521513935521 1072.5694486779998" stroke-miterlimit="10" stroke-width="1.4659797833333332" stroke-dasharray="7.0367029599999995"/><g transform="translate(150.86827113421876,1072.5694486779998) translate(-150.86827113421876,-1072.5694486779998)"><path fill="black" stroke="none" paint-order="stroke fill markers" d=" M 165.5280689675521 1065.2395497613331 L 150.86827113421876 1072.5694486779998 L 165.5280689675521 1079.8993475946666 Z"/></g></g><g><g><rect fill="rgb(255,242,245)" stroke="none" x="171.68518405755208" y="1098.9570847779999" width="190.02343786453125" height="22.86928462"/></g><g><rect fill="yellow" stroke="none" x="174.3239476675521" y="1101.7717659619998" width="184.74591064453125" height="17.767674974"/><text fill="black" stroke="none" font-family="monospace" font-size="11pt" font-style="normal" font-weight="normal" text-decoration="normal" x="174.3239476675521" y="1114.7896664379998" text-anchor="start" dominant-baseline="alphabetic" xml:space="preserve">after_init_instance()</text></g><g><path fill="none" stroke="black" paint-order="fill stroke markers" d=" M 150.86827113421876 1121.826369398 L 221.23530073421875 1121.826369398 L 221.23530073421875 1144.695654018 L 165.3521513935521 1144.695654018" stroke-miterlimit="10" stroke-width="1.4659797833333332" stroke-dasharray=""/><g transform="translate(150.86827113421876,1144.695654018) translate(-150.86827113421876,-1144.695654018)"><path fill="black" stroke="none" paint-order="stroke fill markers" d=" M 165.5280689675521 1137.3657551013332 L 150.86827113421876 1144.695654018 L 165.5280689675521 1152.0255529346666 Z"/></g></g><g><g><rect fill="rgb(255,242,245)" stroke="none" x="180.48106275755208" y="1171.083290118" width="110.846619016875" height="22.86928462"/></g><g><rect fill="yellow" stroke="none" x="183.1198263675521" y="1173.8979713019999" width="105.569091796875" height="17.767674974"/><text fill="black" stroke="none" font-family="monospace" font-size="11pt" font-style="normal" font-weight="normal" text-decoration="normal" x="183.1198263675521" y="1186.9158717779999" text-anchor="start" dominant-baseline="alphabetic" xml:space="preserve">for_delete()</text></g><g><path fill="none" stroke="black" paint-order="fill stroke markers" d=" M 150.86827113421876 1193.952574738 L 230.03117943421876 1193.952574738 L 230.03117943421876 1216.821859358 L 174.1480300935521 1216.821859358" stroke-miterlimit="10" stroke-width="1.4659797833333332" stroke-dasharray=""/><g transform="translate(159.66414983421876,1216.821859358) translate(-159.66414983421876,-1216.821859358)"><path fill="black" stroke="none" paint-order="stroke fill markers" d=" M 174.3239476675521 1209.4919604413333 L 159.66414983421876 1216.821859358 L 174.3239476675521 1224.1517582746667 Z"/></g></g><path fill="white" stroke="black" paint-order="fill stroke markers" d=" M 36.40040322773437 1243.209495458 L 214.32004258070313 1243.209495458 L 230.15262424070312 1259.042077118 L 230.15262424070312 1283.670537478 L 36.40040322773437 1283.670537478 L 36.40040322773437 1243.209495458 M 214.32004258070313 1243.209495458 L 214.32004258070313 1259.042077118 L 230.15262424070312 1259.042077118" stroke-miterlimit="10" stroke-width="1.4659797833333332" stroke-dasharray=""/><g><text fill="black" stroke="none" font-family="sans-serif" font-size="11pt" font-style="normal" font-weight="normal" text-decoration="normal" x="61.02886358773438" y="1267.8379558179997" text-anchor="start" dominant-baseline="alphabetic" xml:space="preserve">If True, row is deleted.</text></g><g><g><rect fill="rgb(255,242,245)" stroke="none" x="180.48106275755208" y="1310.058173578" width="40.467224485624996" height="22.86928462"/></g><text fill="black" stroke="none" font-family="monospace" font-size="11pt" font-style="normal" font-weight="normal" text-decoration="normal" x="183.1198263675521" y="1325.8907552379999" text-anchor="start" dominant-baseline="alphabetic" xml:space="preserve">bool</text></g><g><path fill="none" stroke="black" paint-order="fill stroke markers" d=" M 159.66414983421876 1332.927458198 L 230.03117943421876 1332.927458198 L 230.03117943421876 1355.796742818 L 165.3521513935521 1355.796742818" stroke-miterlimit="10" stroke-width="1.4659797833333332" stroke-dasharray="7.0367029599999995"/><g transform="translate(150.86827113421876,1355.796742818) translate(-150.86827113421876,-1355.796742818)"><path fill="black" stroke="none" paint-order="stroke fill markers" d=" M 165.5280689675521 1348.4668439013333 L 150.86827113421876 1355.796742818 L 165.5280689675521 1363.1266417346667 Z"/></g></g><g><g><rect fill="rgb(255,242,245)" stroke="none" x="180.48106275755208" y="1382.184378918" width="154.83374059890625" height="22.86928462"/></g><text fill="black" stroke="none" font-family="monospace" font-size="11pt" font-style="normal" font-weight="normal" text-decoration="normal" x="183.1198263675521" y="1398.016960578" text-anchor="start" dominant-baseline="alphabetic" xml:space="preserve">import_instance()</text></g><g><path fill="none" stroke="black" paint-order="fill stroke markers" d=" M 150.86827113421876 1405.0536635380001 L 230.03117943421876 1405.0536635380001 L 230.03117943421876 1427.922948158 L 174.1480300935521 1427.922948158" stroke-miterlimit="10" stroke-width="1.4659797833333332" stroke-dasharray=""/><g transform="translate(159.66414983421876,1427.922948158) translate(-159.66414983421876,-1427.922948158)"><path fill="black" stroke="none" paint-order="stroke fill markers" d=" M 174.3239476675521 1420.5930492413333 L 159.66414983421876 1427.922948158 L 174.3239476675521 1435.2528470746668 Z"/></g></g><g><g><rect fill="rgb(204,230,204)" stroke="none" x="481.5644338054224" y="1501.808329238" width="46.007629759062496" height="22.86928462"/></g><text fill="black" stroke="none" font-family="sans-serif" font-size="11pt" font-style="normal" font-weight="normal" text-decoration="normal" x="484.20319741542244" y="1517.640910898" text-anchor="start" dominant-baseline="alphabetic" xml:space="preserve">save()</text></g><g><path fill="none" stroke="black" paint-order="fill stroke markers" d=" M 159.66414983421876 1524.6776138579999 L 834.9884672763553 1524.6776138579999" stroke-miterlimit="10" stroke-width="1.4659797833333332" stroke-dasharray=""/><g transform="translate(849.4723475356886,1524.6776138579999) translate(-849.4723475356886,-1524.6776138579999)"><path fill="black" stroke="none" paint-order="stroke fill markers" d=" M 834.8125497023553 1517.3477149413332 L 849.4723475356886 1524.6776138579999 L 834.8125497023553 1532.0075127746666 Z"/></g></g><g><g><rect fill="rgb(255,242,245)" stroke="none" x="180.48106275755208" y="1621.432279558" width="93.2517703840625" height="22.86928462"/></g><g><rect fill="yellow" stroke="none" x="183.1198263675521" y="1624.2469607419998" width="87.9742431640625" height="17.767674974"/><text fill="black" stroke="none" font-family="monospace" font-size="11pt" font-style="normal" font-weight="normal" text-decoration="normal" x="183.1198263675521" y="1637.2648612179999" text-anchor="start" dominant-baseline="alphabetic" xml:space="preserve">skip_row()</text></g><g><path fill="none" stroke="black" paint-order="fill stroke markers" d=" M 150.86827113421876 1644.301564178 L 230.03117943421876 1644.301564178 L 230.03117943421876 1667.170848798 L 174.1480300935521 1667.170848798" stroke-miterlimit="10" stroke-width="1.4659797833333332" stroke-dasharray=""/><g transform="translate(159.66414983421876,1667.170848798) translate(-159.66414983421876,-1667.170848798)"><path fill="black" stroke="none" paint-order="stroke fill markers" d=" M 174.3239476675521 1659.8409498813332 L 159.66414983421876 1667.170848798 L 174.3239476675521 1674.5007477146667 Z"/></g></g><path fill="white" stroke="black" paint-order="fill stroke markers" d=" M 35.1835148 1693.558484898 L 215.5369310084375 1693.558484898 L 231.3695126684375 1709.391066558 L 231.3695126684375 1734.0195269179999 L 35.1835148 1734.0195269179999 L 35.1835148 1693.558484898 M 215.5369310084375 1693.558484898 L 215.5369310084375 1709.391066558 L 231.3695126684375 1709.391066558" stroke-miterlimit="10" stroke-width="1.4659797833333332" stroke-dasharray=""/><g><text fill="black" stroke="none" font-family="sans-serif" font-size="11pt" font-style="normal" font-weight="normal" text-decoration="normal" x="59.81197516" y="1718.1869452579997" text-anchor="start" dominant-baseline="alphabetic" xml:space="preserve">If True, row is skipped.</text></g><g><g><rect fill="rgb(255,242,245)" stroke="none" x="180.48106275755208" y="1760.407163018" width="40.467224485624996" height="22.86928462"/></g><text fill="black" stroke="none" font-family="monospace" font-size="11pt" font-style="normal" font-weight="normal" text-decoration="normal" x="183.1198263675521" y="1776.2397446779999" text-anchor="start" dominant-baseline="alphabetic" xml:space="preserve">bool</text></g><g><path fill="none" stroke="black" paint-order="fill stroke markers" d=" M 159.66414983421876 1783.276447638 L 230.03117943421876 1783.276447638 L 230.03117943421876 1806.145732258 L 165.3521513935521 1806.145732258" stroke-miterlimit="10" stroke-width="1.4659797833333332" stroke-dasharray="7.0367029599999995"/><g transform="translate(150.86827113421876,1806.145732258) translate(-150.86827113421876,-1806.145732258)"><path fill="black" stroke="none" paint-order="stroke fill markers" d=" M 165.5280689675521 1798.8158333413332 L 150.86827113421876 1806.145732258 L 165.5280689675521 1813.4756311746667 Z"/></g></g><g><g><rect fill="rgb(255,242,245)" stroke="none" x="171.68518405755208" y="1832.533368358" width="172.42858923171875" height="22.86928462"/></g><g><rect fill="yellow" stroke="none" x="174.3239476675521" y="1835.348049542" width="167.15106201171875" height="17.767674974"/><text fill="black" stroke="none" font-family="monospace" font-size="11pt" font-style="normal" font-weight="normal" text-decoration="normal" x="174.3239476675521" y="1848.365950018" text-anchor="start" dominant-baseline="alphabetic" xml:space="preserve">validate_instance()</text></g><g><path fill="none" stroke="black" paint-order="fill stroke markers" d=" M 150.86827113421876 1855.402652978 L 221.23530073421875 1855.402652978 L 221.23530073421875 1878.271937598 L 165.3521513935521 1878.271937598" stroke-miterlimit="10" stroke-width="1.4659797833333332" stroke-dasharray=""/><g transform="translate(150.86827113421876,1878.271937598) translate(-150.86827113421876,-1878.271937598)"><path fill="black" stroke="none" paint-order="stroke fill markers" d=" M 165.5280689675521 1870.9420386813333 L 150.86827113421876 1878.271937598 L 165.5280689675521 1885.6018365146667 Z"/></g></g><g><g><rect fill="rgb(255,242,245)" stroke="none" x="171.68518405755208" y="1904.659573698" width="137.23889196609375" height="22.86928462"/></g><g><rect fill="yellow" stroke="none" x="174.3239476675521" y="1907.474254882" width="131.96136474609375" height="17.767674974"/><text fill="black" stroke="none" font-family="monospace" font-size="11pt" font-style="normal" font-weight="normal" text-decoration="normal" x="174.3239476675521" y="1920.492155358" text-anchor="start" dominant-baseline="alphabetic" xml:space="preserve">save_instance()</text></g><g><path fill="none" stroke="black" paint-order="fill stroke markers" d=" M 150.86827113421876 1927.5288583180002 L 221.23530073421875 1927.5288583180002 L 221.23530073421875 1950.398142938 L 165.3521513935521 1950.398142938" stroke-miterlimit="10" stroke-width="1.4659797833333332" stroke-dasharray=""/><g transform="translate(150.86827113421876,1950.398142938) translate(-150.86827113421876,-1950.398142938)"><path fill="black" stroke="none" paint-order="stroke fill markers" d=" M 165.5280689675521 1943.0682440213334 L 150.86827113421876 1950.398142938 L 165.5280689675521 1957.7280418546668 Z"/></g></g><g><g><rect fill="rgb(255,242,245)" stroke="none" x="171.68518405755208" y="1976.785779038" width="93.2517703840625" height="22.86928462"/></g><g><rect fill="yellow" stroke="none" x="174.3239476675521" y="1979.600460222" width="87.9742431640625" height="17.767674974"/><text fill="black" stroke="none" font-family="monospace" font-size="11pt" font-style="normal" font-weight="normal" text-decoration="normal" x="174.3239476675521" y="1992.618360698" text-anchor="start" dominant-baseline="alphabetic" xml:space="preserve">save_m2m()</text></g><g><path fill="none" stroke="black" paint-order="fill stroke markers" d=" M 150.86827113421876 1999.6550636580002 L 221.23530073421875 1999.6550636580002 L 221.23530073421875 2022.5243482780002 L 165.3521513935521 2022.5243482780002" stroke-miterlimit="10" stroke-width="1.4659797833333332" stroke-dasharray=""/><g transform="translate(150.86827113421876,2022.5243482780002) translate(-150.86827113421876,-2022.5243482780002)"><path fill="black" stroke="none" paint-order="stroke fill markers" d=" M 165.5280689675521 2015.1944493613335 L 150.86827113421876 2022.5243482780002 L 165.5280689675521 2029.8542471946669 Z"/></g></g><g><g><rect fill="rgb(255,242,245)" stroke="none" x="171.68518405755208" y="2048.9119843780004" width="163.6311649153125" height="22.86928462"/></g><g><rect fill="yellow" stroke="none" x="174.3239476675521" y="2051.7266655620006" width="158.3536376953125" height="17.767674974"/><text fill="black" stroke="none" font-family="monospace" font-size="11pt" font-style="normal" font-weight="normal" text-decoration="normal" x="174.3239476675521" y="2064.7445660380004" text-anchor="start" dominant-baseline="alphabetic" xml:space="preserve">after_import_row()</text></g><g><path fill="none" stroke="black" paint-order="fill stroke markers" d=" M 150.86827113421876 2071.781268998 L 221.23530073421875 2071.781268998 L 221.23530073421875 2094.6505536180002 L 165.3521513935521 2094.6505536180002" stroke-miterlimit="10" stroke-width="1.4659797833333332" stroke-dasharray=""/><g transform="translate(150.86827113421876,2094.6505536180002) translate(-150.86827113421876,-2094.6505536180002)"><path fill="black" stroke="none" paint-order="stroke fill markers" d=" M 165.5280689675521 2087.3206547013338 L 150.86827113421876 2094.6505536180002 L 165.5280689675521 2101.9804525346667 Z"/></g></g><g><g><rect fill="rgb(255,242,245)" stroke="none" x="171.68518405755208" y="2121.0381897180005" width="84.45434606765625" height="22.86928462"/></g><text fill="black" stroke="none" font-family="monospace" font-size="11pt" font-style="normal" font-weight="normal" text-decoration="normal" x="174.3239476675521" y="2136.8707713780004" text-anchor="start" dominant-baseline="alphabetic" xml:space="preserve">RowResult</text></g><g><path fill="none" stroke="black" paint-order="fill stroke markers" d=" M 150.86827113421876 2143.907474338 L 221.23530073421875 2143.907474338 L 221.23530073421875 2166.7767589580003 L 156.5562726935521 2166.7767589580003" stroke-miterlimit="10" stroke-width="1.4659797833333332" stroke-dasharray="7.0367029599999995"/><g transform="translate(142.07239243421876,2166.7767589580003) translate(-142.07239243421876,-2166.7767589580003)"><path fill="black" stroke="none" paint-order="stroke fill markers" d=" M 156.73219026755208 2159.446860041334 L 142.07239243421876 2166.7767589580003 L 156.73219026755208 2174.106657874667 Z"/></g></g><g><g><rect fill="white" stroke="none" x="162.88930535755208" y="2219.5520311580003" width="58.062073118437496" height="22.86928462"/></g><text fill="black" stroke="none" font-family="monospace" font-size="11pt" font-style="normal" font-weight="normal" text-decoration="normal" x="165.5280689675521" y="2235.3846128180003" text-anchor="start" dominant-baseline="alphabetic" xml:space="preserve">Result</text></g><g><path fill="none" stroke="black" paint-order="fill stroke markers" d=" M 142.07239243421876 2242.421315778 L 212.43942203421875 2242.421315778 L 212.43942203421875 2265.290600398 L 147.7603939935521 2265.290600398" stroke-miterlimit="10" stroke-width="1.4659797833333332" stroke-dasharray="7.0367029599999995"/><g transform="translate(133.27651373421875,2265.290600398) translate(-133.27651373421875,-2265.290600398)"><path fill="black" stroke="none" paint-order="stroke fill markers" d=" M 147.93631156755208 2257.9607014813337 L 133.27651373421875 2265.290600398 L 147.93631156755208 2272.6204993146666 Z"/></g></g><g><g/><path fill="none" stroke="black" paint-order="fill stroke markers" d=" M -8.795878700000003 337.233989358 L 928.6352558356887 337.233989358 L 928.6352558356887 2193.164395058 L -8.795878700000003 2193.164395058 L -8.795878700000003 337.233989358 Z" stroke-miterlimit="10" stroke-width="2.5131082" stroke-dasharray=""/><path fill="pink" stroke="black" paint-order="fill stroke markers" d=" M -8.795878700000003 337.233989358 L -8.795878700000003 358.34409823799996 L 51.142030631249995 358.34409823799996 L 61.697085071249994 347.78904379799997 L 61.697085071249994 337.233989358 L -8.795878700000003 337.233989358" stroke-miterlimit="10" stroke-width="2.5131082" stroke-dasharray=""/><text fill="black" stroke="none" font-family="sans-serif" font-size="8.8pt" font-style="normal" font-weight="bold" text-decoration="normal" x="8.795878699999996" y="351.30739527799994" text-anchor="start" dominant-baseline="alphabetic" xml:space="preserve">loop</text><g><rect fill="rgb(255,242,245)" stroke="none" x="76.65007886125" y="338.64132994999994" width="121.95309484695312" height="18.295427696"/></g><text fill="black" stroke="none" font-family="sans-serif" font-size="8.8pt" font-style="normal" font-weight="bold" text-decoration="normal" x="79.28884247124999" y="351.30739527799994" text-anchor="start" dominant-baseline="alphabetic" xml:space="preserve">[each row in dataset]</text></g><g><g/><path fill="none" stroke="black" paint-order="fill stroke markers" d=" M 71.70536283421876 1454.3105842579998 L 911.0434984356887 1454.3105842579998 L 911.0434984356887 1551.0652499579999 L 71.70536283421876 1551.0652499579999 L 71.70536283421876 1454.3105842579998 Z" stroke-miterlimit="10" stroke-width="2.5131082" stroke-dasharray=""/><path fill="green" stroke="black" paint-order="fill stroke markers" d=" M 71.70536283421876 1454.3105842579998 L 71.70536283421876 1475.420693138 L 131.64327216546877 1475.420693138 L 142.19832660546876 1464.8656386979999 L 142.19832660546876 1454.3105842579998 L 71.70536283421876 1454.3105842579998" stroke-miterlimit="10" stroke-width="2.5131082" stroke-dasharray=""/><text fill="black" stroke="none" font-family="sans-serif" font-size="8.8pt" font-style="normal" font-weight="bold" text-decoration="normal" x="89.29712023421877" y="1468.383990178" text-anchor="start" dominant-baseline="alphabetic" xml:space="preserve">loop</text><g><rect fill="rgb(204,230,204)" stroke="none" x="157.15132039546876" y="1455.71792485" width="104.99385107253906" height="18.295427696"/></g><text fill="black" stroke="none" font-family="sans-serif" font-size="8.8pt" font-style="normal" font-weight="bold" text-decoration="normal" x="159.79008400546877" y="1468.383990178" text-anchor="start" dominant-baseline="alphabetic" xml:space="preserve">[each field in row]</text></g></g><g/><g/><g/><g/><g/></g></g></g></g></g></g></g></g></g></g></g></g></svg>